<?xml version="1.0" standalone="no"?>
<!DOCTYPE svg PUBLIC "-//W3C//DTD SVG 20010904//EN"
 "http://www.w3.org/TR/2001/REC-SVG-20010904/DTD/svg10.dtd">
<svg version="1.0" xmlns="http://www.w3.org/2000/svg"
 width="2048.000000pt" height="2048.000000pt" viewBox="0 0 2048.000000 2048.000000"
 preserveAspectRatio="xMidYMid meet">

<g transform="translate(0.000000,2048.000000) scale(0.100000,-0.100000)"
fill="#000000" stroke="none">
<path d="M13376 19849 c-15 -17 -49 -77 -76 -134 -47 -95 -52 -103 -89 -113
-21 -7 -48 -12 -59 -12 -12 0 -60 -10 -108 -22 -65 -16 -90 -28 -101 -45 -24
-37 -6 -62 111 -159 58 -48 107 -96 110 -109 3 -12 -3 -56 -14 -96 -11 -41
-20 -100 -20 -131 0 -50 3 -60 25 -74 31 -21 56 -12 186 61 54 30 105 55 115
55 9 0 67 -23 128 -52 115 -53 153 -61 182 -37 21 18 15 81 -22 208 l-27 95
95 90 c52 50 102 103 112 118 38 58 -18 87 -209 108 -55 7 -103 14 -108 17 -4
2 -21 33 -37 69 -16 35 -48 93 -71 129 -51 77 -80 85 -123 34z m141 -136 c29
-61 60 -118 68 -126 9 -9 45 -17 97 -21 141 -11 178 -17 193 -33 22 -22 4 -48
-98 -138 -48 -42 -90 -88 -93 -101 -3 -13 8 -72 25 -134 37 -133 39 -160 11
-160 -11 0 -69 24 -128 54 -59 29 -116 56 -128 60 -15 4 -56 -15 -149 -70
-120 -72 -129 -75 -142 -58 -17 23 -17 12 12 148 14 64 25 122 25 131 0 18
-72 88 -162 157 -108 83 -97 96 111 132 l123 21 20 50 c66 170 114 239 147
212 8 -7 39 -62 68 -124z"/>
<path d="M9935 19693 c-571 -27 -872 -51 -1095 -88 -47 -7 -148 -23 -225 -35
-547 -84 -1039 -204 -1485 -361 -96 -34 -213 -75 -260 -91 -47 -16 -93 -36
-102 -45 -9 -8 -34 -17 -56 -20 l-40 -5 -21 55 c-32 87 -98 219 -131 266 -59
81 -104 75 -159 -23 -55 -97 -67 -121 -105 -211 -21 -49 -43 -95 -50 -101 -6
-6 -65 -16 -131 -23 -129 -13 -239 -38 -280 -65 -18 -12 -25 -25 -25 -48 0
-26 13 -43 77 -104 64 -62 74 -76 64 -88 -7 -9 -68 -44 -136 -80 -68 -35 -172
-93 -232 -128 -59 -36 -169 -100 -243 -143 -74 -43 -171 -103 -215 -134 -44
-30 -151 -103 -239 -163 -227 -156 -636 -472 -766 -593 -30 -28 -95 -85 -145
-127 -49 -42 -126 -110 -170 -152 -44 -42 -84 -75 -89 -73 -5 2 -17 30 -26 63
-28 103 -159 374 -261 540 l-19 31 52 84 c186 304 247 422 255 492 4 32 0 55
-16 85 -26 51 -50 68 -118 83 -66 15 -276 1 -487 -33 l-139 -23 -26 31 c-344
402 -387 444 -492 479 -69 23 -109 14 -158 -36 -49 -50 -80 -127 -115 -284
-15 -66 -32 -136 -37 -155 -6 -19 -18 -84 -29 -144 -10 -59 -23 -113 -28 -118
-10 -10 -147 -72 -370 -169 -110 -47 -210 -113 -251 -165 -15 -19 -21 -41 -21
-76 0 -44 4 -53 46 -98 61 -65 106 -93 373 -229 l226 -116 3 -35 c5 -70 62
-476 74 -528 32 -145 137 -208 251 -151 60 31 181 136 342 299 120 121 144
141 165 137 14 -3 108 -23 209 -46 208 -46 342 -71 386 -71 73 -1 67 -12 -90
-172 -207 -211 -288 -300 -486 -538 -68 -81 -373 -490 -419 -562 -98 -151 -92
-312 16 -444 53 -65 113 -102 196 -123 126 -32 235 -4 322 82 23 23 114 139
204 257 243 322 278 366 408 516 255 296 717 757 940 939 60 49 145 120 189
158 44 38 166 133 270 212 453 340 905 617 1400 859 175 86 203 97 225 88 230
-96 237 -97 266 -39 15 28 15 40 5 91 -7 33 -9 62 -4 67 14 14 486 183 634
227 293 87 696 187 896 222 65 11 161 29 213 40 86 17 172 29 535 75 336 42
490 50 1020 49 468 0 541 -3 725 -23 375 -40 603 -74 825 -121 128 -27 195
-23 281 20 132 65 214 204 201 342 -11 124 -99 252 -204 300 -45 20 -259 66
-433 92 -58 9 -127 21 -155 26 -64 13 -353 46 -520 59 -386 32 -764 45 -990
34z m995 -77 c80 -9 192 -20 250 -26 58 -6 132 -15 165 -20 33 -5 98 -14 145
-21 82 -11 150 -22 345 -56 176 -30 262 -84 321 -200 25 -50 29 -70 29 -138 0
-67 -5 -88 -27 -131 -52 -100 -166 -174 -268 -174 -30 0 -147 18 -260 40 -503
98 -1292 152 -1754 120 -77 -5 -231 -14 -341 -20 -110 -6 -270 -20 -355 -30
-85 -11 -217 -27 -293 -35 -77 -9 -200 -28 -275 -42 -76 -14 -184 -33 -242
-43 -113 -20 -277 -56 -405 -91 -44 -11 -96 -25 -115 -29 -164 -37 -561 -168
-791 -261 -81 -32 -153 -59 -161 -59 -9 0 -20 12 -26 28 -26 72 -52 150 -52
160 0 5 57 68 126 139 140 143 161 174 146 208 -10 22 -101 65 -137 65 -8 0
-17 5 -20 10 -3 6 -15 10 -25 10 -22 0 -32 13 -25 32 12 29 218 102 635 226
183 54 558 146 740 181 393 75 505 93 695 111 66 6 147 15 180 20 252 37 544
49 1125 45 386 -3 563 -8 670 -19z m-4443 -284 c16 -21 42 -67 58 -102 17 -35
48 -100 70 -144 l40 -81 70 -17 c39 -10 119 -25 179 -33 100 -13 146 -31 146
-55 0 -4 -61 -70 -135 -146 -89 -93 -134 -146 -135 -161 0 -13 6 -40 14 -60 8
-21 22 -67 31 -103 10 -36 26 -93 37 -127 11 -34 18 -75 16 -90 -3 -25 -7 -28
-36 -27 -18 1 -73 25 -130 57 -53 31 -136 75 -183 98 l-86 42 -79 -43 c-44
-23 -115 -64 -159 -91 -96 -57 -126 -67 -145 -44 -12 14 -11 27 3 88 65 275
68 306 39 335 -10 9 -70 60 -132 112 -143 118 -160 135 -160 154 0 31 51 45
270 76 77 11 146 22 152 26 6 4 39 68 74 143 94 199 113 231 140 231 8 0 26
-17 41 -38z m-4059 -445 c27 -13 77 -57 127 -112 45 -49 137 -151 205 -225 68
-74 130 -139 138 -144 10 -6 55 -3 121 8 151 23 296 36 423 36 111 0 135 -6
176 -43 28 -26 29 -85 3 -142 -27 -59 -165 -304 -209 -371 -21 -33 -49 -77
-62 -99 l-23 -40 143 -285 c130 -261 142 -291 147 -352 5 -63 4 -68 -22 -92
-24 -22 -37 -26 -89 -26 -81 0 -296 37 -557 95 -84 19 -119 18 -144 -1 -11 -8
-76 -70 -145 -137 -181 -177 -294 -273 -346 -293 -42 -16 -48 -16 -79 -1 -21
10 -42 31 -53 54 -28 58 -67 273 -108 602 -8 64 2 57 -329 230 -170 89 -267
152 -291 189 -10 15 -18 44 -18 66 -1 71 92 135 379 261 182 80 243 112 254
133 6 11 17 52 26 93 109 510 125 559 195 607 40 27 67 25 138 -11z m3590
-244 c29 -21 54 -47 57 -58 3 -11 -9 -83 -28 -160 -50 -203 -53 -229 -28 -254
12 -12 34 -21 51 -21 38 0 170 65 276 136 45 29 88 54 96 54 21 0 113 -64 113
-79 0 -8 -18 -19 -40 -26 -22 -7 -103 -42 -180 -80 -77 -37 -183 -88 -234
-112 -95 -45 -145 -75 -421 -246 -338 -210 -820 -552 -989 -703 -25 -22 -91
-78 -146 -123 -213 -177 -543 -499 -819 -799 -230 -252 -425 -491 -622 -766
-101 -141 -147 -190 -208 -221 -198 -99 -451 61 -451 285 0 86 26 139 151 311
263 363 447 589 694 854 57 61 143 155 192 210 49 55 102 107 118 115 16 8 40
29 52 45 63 83 413 397 703 631 405 327 968 700 1437 952 53 29 107 61 120 72
33 27 47 25 106 -17z"/>
<path d="M4637 19599 c-26 -27 -39 -53 -56 -119 -12 -47 -24 -90 -26 -97 -5
-14 -56 -37 -128 -60 -27 -8 -65 -29 -84 -47 -54 -49 -44 -72 70 -147 50 -34
98 -69 105 -77 8 -10 12 -51 12 -117 0 -86 3 -104 18 -118 39 -36 81 -19 177
71 66 62 91 65 205 27 88 -29 123 -31 145 -8 22 22 15 52 -36 164 -42 88 -42
90 -26 123 8 19 36 57 61 85 49 55 62 86 52 125 -10 41 -52 50 -159 36 -50 -7
-100 -11 -109 -9 -9 2 -45 42 -80 88 -35 47 -73 91 -85 99 -21 13 -25 12 -56
-19z m107 -97 c84 -120 80 -117 184 -103 48 7 96 14 106 16 29 6 56 -13 56
-39 0 -13 -28 -59 -65 -107 -66 -85 -77 -118 -51 -148 20 -24 78 -170 71 -181
-9 -15 -42 -12 -145 15 -52 14 -100 25 -107 25 -6 0 -52 -34 -103 -75 -131
-107 -140 -103 -132 51 6 124 9 119 -113 193 -106 65 -117 77 -88 101 12 9 63
32 115 50 51 18 98 37 105 42 6 5 19 42 28 81 24 108 45 157 66 157 12 0 39
-29 73 -78z"/>
<path d="M16285 19319 c-143 -15 -375 -65 -508 -110 -216 -72 -488 -214 -662
-348 -70 -53 -215 -196 -215 -212 0 -7 -34 -8 -108 -3 -183 11 -265 -18 -382
-135 -41 -42 -85 -97 -98 -122 -12 -26 -28 -51 -35 -56 -6 -6 -43 -10 -82 -11
-137 -1 -265 -65 -358 -176 -202 -243 -129 -625 150 -781 56 -31 156 -65 191
-65 46 0 59 -18 66 -95 8 -84 18 -121 57 -201 50 -104 182 -217 305 -264 200
-74 468 -63 599 26 20 13 40 24 45 24 6 0 38 -23 72 -51 117 -94 214 -129 363
-130 171 -1 298 52 409 171 92 98 146 266 130 400 -18 149 -105 294 -218 367
-33 21 -37 28 -32 51 4 15 11 60 16 100 5 40 12 76 15 81 17 29 228 120 341
148 51 12 113 17 234 17 145 0 179 -3 279 -27 145 -34 240 -76 366 -159 133
-88 209 -159 300 -279 131 -174 210 -380 223 -581 4 -59 6 -112 4 -117 -2 -6
-34 -33 -72 -61 -37 -27 -87 -76 -111 -108 -66 -88 -69 -90 -131 -82 -211 29
-449 -130 -514 -345 -22 -72 -29 -221 -15 -296 36 -183 189 -356 380 -430 50
-20 151 -29 320 -29 4 0 13 -19 20 -42 43 -146 164 -290 308 -366 242 -127
508 -105 688 58 l55 50 74 -40 c309 -170 702 -2 781 332 47 200 -26 390 -195
504 -50 33 -48 23 -34 170 13 151 -70 316 -206 407 -31 21 -35 27 -32 63 10
161 12 397 3 484 -43 432 -186 837 -409 1160 -186 270 -320 409 -577 600 -350
260 -774 434 -1215 497 -129 18 -463 25 -585 12z m630 -63 c123 -21 381 -88
490 -126 199 -70 525 -248 682 -372 196 -154 283 -239 416 -403 111 -138 187
-257 267 -415 125 -251 189 -445 242 -745 14 -78 18 -618 5 -631 -4 -4 -36 0
-71 9 -95 25 -197 22 -297 -9 -123 -38 -146 -40 -153 -16 -4 11 -28 42 -53 68
l-47 49 -1 215 c-1 233 -9 288 -75 518 -77 265 -217 496 -435 717 -280 285
-675 474 -1108 531 -178 23 -416 9 -602 -37 -235 -58 -415 -145 -585 -282
l-74 -61 -96 -2 c-52 -2 -110 -5 -129 -6 -32 -3 -35 0 -72 70 -69 133 -147
213 -246 258 -29 13 -53 29 -53 35 0 14 93 100 197 182 211 166 480 306 735
382 83 25 282 67 398 84 100 15 558 6 665 -13z m-2060 -662 c140 -36 271 -157
347 -320 16 -35 35 -64 41 -64 7 0 37 7 67 15 224 60 490 -77 595 -307 51
-111 59 -203 30 -321 -7 -26 -1 -34 68 -98 41 -38 89 -92 106 -119 121 -197
86 -453 -83 -606 -198 -179 -472 -177 -691 5 -33 28 -65 51 -71 51 -6 0 -44
-18 -86 -39 -239 -124 -540 -77 -733 114 -107 106 -150 194 -170 353 -8 58
-16 66 -85 76 -146 22 -297 123 -366 245 -36 65 -64 153 -64 203 1 139 44 264
121 351 89 101 191 148 334 152 l89 2 34 64 c57 109 183 217 291 249 44 14
164 11 226 -6z m2084 -19 c235 -50 436 -137 671 -292 222 -146 447 -404 570
-652 114 -228 179 -507 180 -763 0 -165 -1 -167 -91 -119 -130 70 -262 89
-391 55 -79 -20 -88 -16 -88 43 0 67 -25 216 -51 299 -30 98 -118 277 -178
359 -192 264 -505 441 -856 485 -109 13 -285 0 -391 -30 -85 -23 -208 -78
-269 -119 -46 -31 -65 -27 -65 14 0 39 -68 160 -124 222 -59 64 -137 118 -216
149 -67 26 -74 33 -53 56 23 26 132 96 228 147 83 45 265 110 375 134 236 53
533 57 749 12z m1176 -1807 c93 -19 193 -76 272 -156 40 -40 73 -76 73 -81 0
-5 9 -20 20 -34 l21 -26 61 29 c34 16 96 37 138 46 64 15 87 16 155 6 243 -36
415 -222 415 -451 0 -42 -4 -91 -10 -110 -9 -33 -8 -36 33 -70 212 -180 265
-354 174 -576 -43 -105 -147 -207 -252 -247 -67 -26 -173 -41 -244 -35 -103 9
-180 39 -276 111 -9 7 -31 -7 -74 -46 -70 -63 -159 -114 -235 -134 -123 -33
-304 -8 -430 59 -116 62 -238 206 -295 348 l-29 73 -128 1 c-140 1 -203 17
-310 80 -63 37 -152 129 -187 192 -35 66 -67 190 -67 262 0 67 28 179 60 241
36 70 138 165 217 203 65 30 74 32 192 33 110 1 125 3 137 20 84 125 169 202
262 239 106 43 185 49 307 23z"/>
<path d="M1280 15988 c-11 -18 -30 -64 -41 -103 -11 -38 -28 -95 -37 -125
l-17 -55 -90 -33 c-137 -50 -178 -73 -189 -104 -13 -36 13 -64 119 -128 128
-78 125 -73 126 -198 0 -133 20 -195 62 -200 30 -4 51 9 170 105 44 35 87 63
97 63 9 0 62 -13 116 -29 55 -16 113 -32 130 -35 41 -9 82 8 89 37 6 23 -1 46
-64 199 -38 92 -39 87 68 222 76 95 85 122 50 155 -30 28 -93 35 -199 23 -50
-6 -97 -9 -105 -6 -7 3 -40 40 -72 81 -100 131 -132 163 -164 163 -22 0 -34
-8 -49 -32z m99 -45 c23 -27 65 -82 94 -123 l53 -75 144 3 c171 4 190 -2 164
-55 -9 -17 -49 -71 -90 -119 -77 -91 -84 -109 -60 -147 8 -12 33 -66 56 -119
33 -79 39 -101 30 -118 -6 -11 -14 -20 -18 -20 -4 0 -63 18 -132 40 -69 22
-136 40 -150 40 -18 0 -57 -26 -125 -85 -138 -118 -139 -117 -145 56 -4 96 -9
141 -19 153 -8 9 -53 42 -100 73 -88 58 -141 101 -141 115 0 12 48 33 168 73
87 28 115 42 122 59 5 11 20 74 34 140 23 106 44 156 67 156 4 0 26 -21 48
-47z"/>
<path d="M17430 15160 c0 -7 40 -71 89 -144 96 -143 119 -179 289 -461 94
-156 272 -489 272 -509 0 -3 36 -81 81 -173 44 -93 101 -214 125 -270 99 -230
288 -769 339 -968 13 -49 41 -160 64 -245 103 -398 204 -993 225 -1340 3 -36
11 -119 18 -185 9 -85 13 -264 12 -615 -1 -448 -4 -524 -28 -795 -37 -414 -70
-622 -166 -1025 -96 -403 -97 -414 -43 -521 42 -84 105 -152 166 -179 98 -44
225 -44 322 -1 58 26 146 113 179 179 70 139 215 870 255 1292 70 730 74 1275
12 1900 -36 362 -47 445 -102 775 -54 325 -193 892 -302 1230 -91 283 -134
395 -342 905 -50 123 -251 533 -313 639 -41 71 -65 92 -83 74 -8 -8 4 -37 47
-114 115 -205 346 -701 440 -944 164 -425 334 -967 404 -1285 51 -237 61 -287
89 -440 49 -277 66 -401 121 -905 26 -241 35 -448 35 -790 -1 -446 -17 -697
-81 -1204 -51 -410 -72 -527 -160 -896 -43 -179 -77 -259 -136 -317 -65 -65
-145 -92 -251 -86 -101 7 -148 28 -207 95 -70 80 -85 116 -84 208 1 48 10 114
23 165 68 259 151 647 175 825 54 384 68 648 70 1250 1 497 -4 620 -40 958
-49 473 -190 1139 -351 1667 -92 301 -325 868 -504 1224 -215 426 -339 637
-514 869 -113 151 -145 185 -145 157z"/>
<path d="M19796 14079 c-28 -33 -47 -72 -73 -152 -18 -55 -23 -59 -138 -83
-92 -19 -110 -27 -125 -54 -16 -29 3 -57 94 -135 l78 -68 -6 -43 c-3 -23 -8
-78 -12 -121 -6 -67 -4 -82 11 -96 21 -21 37 -17 125 30 36 20 82 45 103 56
l38 20 81 -43 c108 -56 136 -64 165 -45 30 20 30 56 -2 164 -14 47 -25 91 -25
98 0 7 24 37 53 66 83 82 110 123 103 152 -10 39 -54 55 -150 55 -46 0 -92 3
-100 6 -9 3 -35 42 -57 85 -47 91 -88 139 -117 139 -11 0 -32 -14 -46 -31z
m94 -50 c17 -28 42 -75 55 -104 12 -29 28 -56 35 -60 6 -4 61 -11 122 -16 60
-5 114 -11 119 -15 23 -14 2 -50 -76 -131 -47 -49 -83 -92 -81 -98 43 -124 67
-209 62 -220 -9 -24 -32 -18 -134 35 -53 28 -102 50 -109 50 -7 0 -61 -30
-119 -66 -125 -79 -133 -77 -115 23 7 37 15 91 18 118 5 50 5 51 -44 95 -27
25 -70 60 -96 77 -78 54 -66 68 83 99 104 21 125 33 140 81 18 56 61 156 72
171 19 22 36 13 68 -39z"/>
<path d="M1644 13696 c-167 -38 -258 -169 -390 -560 -75 -222 -133 -420 -164
-561 -12 -55 -40 -174 -62 -265 -56 -236 -77 -354 -143 -815 -39 -275 -56
-460 -86 -938 -17 -265 -6 -737 25 -1130 30 -373 42 -485 60 -587 17 -92 31
-180 46 -285 7 -44 22 -129 35 -190 12 -60 28 -144 35 -185 7 -41 16 -86 21
-100 4 -14 22 -83 39 -155 45 -194 98 -386 116 -419 14 -27 14 -31 -3 -47 -10
-10 -46 -29 -81 -43 -104 -41 -232 -116 -244 -141 -7 -16 -7 -29 1 -43 15 -28
127 -101 243 -157 53 -26 103 -54 111 -63 10 -12 19 -61 26 -153 17 -209 45
-289 100 -289 19 0 76 33 108 62 27 25 40 18 54 -34 30 -114 273 -629 414
-878 54 -96 117 -209 140 -250 40 -72 72 -126 120 -200 12 -19 67 -102 120
-185 144 -220 231 -335 255 -335 24 0 26 22 3 41 -16 14 -341 503 -402 606
-77 131 -175 302 -211 368 -115 213 -366 741 -401 842 -30 89 -27 100 49 176
37 37 75 67 84 67 8 0 76 -16 151 -35 157 -41 217 -44 254 -15 35 27 43 19 93
-98 141 -325 472 -930 653 -1193 32 -46 103 -149 157 -229 141 -205 204 -280
235 -280 31 0 32 20 3 46 -63 56 -352 478 -532 778 -185 308 -375 675 -513
991 -36 83 -92 208 -124 278 -32 71 -59 137 -59 149 0 22 27 65 70 113 27 29
86 115 128 186 l22 36 -22 28 -22 28 -132 -7 -132 -7 -20 63 c-28 87 -157 613
-177 723 -9 50 -20 110 -25 135 -28 144 -61 364 -80 530 -6 52 -15 131 -20
175 -35 296 -45 491 -45 915 1 263 5 486 13 565 6 72 17 186 22 255 13 155 54
479 79 625 34 199 129 658 161 775 17 63 35 133 41 155 29 115 128 417 212
645 26 72 31 99 31 175 -1 78 -4 97 -29 148 -37 75 -123 156 -192 180 -69 25
-146 29 -219 13z m211 -70 c112 -54 173 -134 189 -246 7 -48 -8 -104 -60 -230
-32 -76 -170 -520 -208 -665 -81 -316 -140 -586 -170 -785 -65 -431 -85 -604
-106 -890 -5 -74 -15 -206 -21 -292 -8 -104 -10 -263 -5 -475 10 -475 13 -520
86 -1138 6 -49 20 -133 30 -185 10 -52 21 -117 25 -145 11 -87 37 -214 87
-425 59 -249 76 -316 110 -421 17 -53 29 -103 25 -112 -8 -22 -111 -34 -134
-16 -9 8 -50 59 -92 114 -99 132 -172 205 -204 205 -34 0 -72 -47 -91 -112
-23 -82 -56 -235 -56 -264 0 -64 -43 -80 -55 -21 -10 50 -84 358 -95 397 -23
83 -48 190 -59 250 -7 36 -16 81 -21 100 -5 19 -16 78 -25 130 -8 52 -27 163
-40 245 -14 83 -29 184 -35 225 -5 41 -14 111 -20 155 -39 304 -70 806 -70
1155 0 276 36 894 64 1100 8 58 20 148 26 200 37 296 147 859 224 1145 38 140
59 214 71 250 7 22 25 78 40 125 33 106 100 299 127 365 84 210 179 293 333
294 49 1 74 -5 130 -33z m-368 -5833 c37 -43 97 -113 132 -156 l64 -79 96 7
c53 3 128 10 166 15 137 18 190 20 205 11 13 -9 13 -14 -3 -44 -10 -18 -30
-47 -45 -64 -140 -160 -182 -220 -182 -262 0 -17 30 -95 67 -174 45 -97 67
-155 67 -182 1 -38 -1 -40 -30 -43 -17 -2 -104 15 -194 37 -91 23 -171 41
-179 41 -7 0 -80 -65 -161 -145 -81 -80 -152 -145 -157 -145 -6 0 -16 7 -23
15 -15 17 -39 207 -40 305 0 36 -6 76 -13 89 -8 17 -67 54 -181 116 -93 50
-174 99 -180 108 -15 26 11 45 131 96 54 24 127 55 163 70 41 18 69 37 77 52
6 13 29 100 51 192 40 168 60 217 87 217 7 0 45 -35 82 -77z"/>
<path d="M18852 6518 c-11 -18 -36 -67 -57 -108 -49 -99 -135 -219 -189 -267
-59 -52 -121 -85 -257 -134 -124 -45 -149 -61 -149 -93 0 -24 58 -83 136 -139
69 -49 177 -165 214 -229 36 -63 99 -252 107 -321 4 -30 15 -60 28 -75 21 -24
25 -25 47 -14 13 7 39 41 58 75 150 276 271 389 520 488 86 34 116 50 118 65
2 15 -25 37 -119 99 -72 47 -143 103 -173 137 -87 95 -153 250 -187 438 -20
111 -58 142 -97 78z m62 -70 c3 -18 11 -62 16 -98 39 -235 177 -427 381 -531
33 -16 59 -36 59 -43 0 -8 -30 -26 -72 -42 -164 -61 -237 -102 -304 -166 -83
-80 -161 -182 -215 -281 -61 -114 -81 -115 -93 -5 -15 127 -73 264 -159 377
-50 66 -171 164 -244 198 -88 42 -77 55 101 117 224 78 321 166 436 396 23 47
47 91 52 98 18 22 37 13 42 -20z"/>
<path d="M17387 6373 c-18 -21 -99 -152 -175 -283 -89 -155 -87 -154 -243
-124 -112 21 -212 16 -241 -13 l-21 -22 37 -105 c44 -124 41 -135 -36 -161
-115 -37 -242 -102 -266 -136 -12 -18 -21 -37 -19 -43 7 -24 107 -78 269 -147
93 -39 183 -83 199 -97 35 -29 58 -71 104 -190 29 -78 111 -276 135 -327 5
-11 16 -38 25 -60 l17 -40 36 41 c20 23 45 57 55 75 l18 34 -31 -37 c-33 -39
-60 -48 -77 -25 -6 6 -22 50 -38 97 -23 72 -91 245 -149 381 -8 20 -31 50 -50
67 -31 27 -187 108 -241 125 -11 4 -65 26 -120 50 -73 32 -100 48 -100 62 0
12 29 31 100 66 55 27 129 64 165 82 l65 34 -1 44 c0 25 -14 79 -34 127 -28
70 -31 85 -19 93 20 12 25 12 207 -12 l162 -22 31 29 c37 35 110 148 173 269
27 50 56 99 66 109 17 17 21 18 36 5 22 -18 34 -47 105 -252 32 -92 63 -195
69 -230 21 -120 20 -119 128 -172 53 -26 118 -55 144 -66 57 -22 156 -77 164
-91 14 -22 -24 -61 -123 -129 -149 -104 -195 -145 -191 -178 3 -31 -20 -130
-35 -149 -13 -17 -38 -10 -132 33 -40 19 -81 32 -90 29 -13 -6 -45 -53 -45
-68 0 -3 13 2 29 12 27 15 32 15 107 -10 127 -42 142 -44 153 -16 5 13 16 30
25 37 23 19 31 78 15 108 -13 24 -12 27 23 57 21 18 77 59 125 92 114 76 183
140 183 169 0 18 -31 37 -195 120 -118 59 -205 109 -219 126 -15 18 -28 52
-35 96 -15 82 -47 217 -63 258 -37 95 -139 295 -151 295 -8 0 -21 -8 -30 -17z"/>
<path d="M951 5701 c-20 -20 -35 -80 -46 -184 -4 -31 -13 -63 -21 -71 -8 -8
-40 -24 -71 -36 -76 -28 -140 -66 -153 -90 -15 -29 26 -71 117 -118 117 -61
119 -63 126 -175 6 -102 16 -132 46 -142 30 -9 69 16 139 89 73 76 79 78 227
46 87 -18 91 -18 115 -1 14 10 26 27 28 39 2 11 -17 60 -42 107 -25 48 -46 97
-46 109 0 12 22 57 50 101 57 91 64 108 56 139 -10 42 -57 52 -151 33 -126
-26 -123 -27 -196 57 -99 113 -140 135 -178 97z m101 -68 c24 -26 63 -70 88
-96 l46 -49 102 22 c176 38 192 13 90 -139 -57 -86 -60 -95 -48 -115 32 -48
90 -170 90 -188 0 -30 -26 -32 -128 -9 -135 30 -141 29 -193 -24 -24 -25 -63
-62 -87 -82 -40 -33 -45 -34 -60 -20 -11 11 -17 38 -19 84 -6 137 -11 146
-128 208 -84 44 -110 67 -101 90 6 16 127 77 179 90 41 11 54 39 65 142 17
148 35 162 104 86z"/>
<path d="M17400 5013 c-6 -10 -33 -65 -60 -123 -44 -92 -47 -101 -22 -72 46
52 119 212 98 212 -3 0 -10 -8 -16 -17z"/>
<path d="M3295 4756 c-116 -15 -205 -36 -345 -84 -210 -72 -370 -174 -515
-329 l-61 -64 -74 12 c-187 29 -421 -38 -598 -171 -182 -137 -293 -273 -405
-496 -130 -259 -177 -466 -178 -774 -1 -203 22 -354 72 -483 11 -26 19 -55 19
-63 0 -9 -40 -58 -89 -110 -169 -178 -223 -366 -175 -602 61 -302 345 -530
723 -582 157 -21 363 24 492 108 88 58 184 159 223 236 17 34 35 56 45 56 9 0
71 -11 138 -25 182 -37 346 -54 548 -59 487 -10 932 53 1350 193 228 75 261
88 379 149 l110 55 15 -23 c103 -152 353 -260 571 -246 233 16 424 96 581 243
96 91 146 156 193 250 66 133 82 235 60 382 -21 148 -71 240 -193 361 -91 91
-149 129 -254 169 l-28 11 7 108 c16 259 -59 578 -198 844 -63 121 -214 323
-302 406 -137 128 -305 225 -491 285 -95 30 -108 32 -255 32 -146 0 -160 -2
-237 -29 l-81 -29 -39 30 c-87 69 -263 155 -406 198 -153 47 -411 64 -602 41z
m514 -62 c174 -39 343 -112 470 -202 l64 -45 83 27 c114 37 236 50 338 35 277
-40 517 -184 711 -427 182 -227 305 -485 366 -768 26 -119 33 -394 11 -416 -9
-9 -44 -12 -125 -10 -174 5 -318 -40 -466 -145 -174 -124 -292 -282 -336 -449
-30 -114 -13 -175 20 -71 28 93 101 234 157 304 206 260 493 380 752 313 118
-30 189 -72 287 -170 91 -91 136 -167 175 -295 44 -144 9 -336 -88 -487 -125
-195 -382 -355 -628 -390 -209 -29 -458 59 -587 208 -26 30 -53 54 -60 54 -7
0 -44 -15 -81 -34 -37 -19 -106 -48 -152 -66 -47 -17 -96 -36 -110 -42 -67
-28 -271 -93 -405 -128 -256 -67 -554 -110 -880 -125 -210 -10 -665 30 -849
76 -43 10 -80 19 -82 19 -2 0 -17 -29 -34 -64 -61 -128 -246 -282 -394 -328
-58 -18 -95 -22 -196 -21 -159 0 -245 22 -398 100 -213 108 -333 247 -383 441
-24 96 -24 188 1 288 25 99 51 152 114 233 118 151 303 240 499 241 151 0 352
-69 475 -163 90 -69 182 -175 242 -277 47 -80 55 -90 58 -67 7 61 -113 248
-213 330 -167 139 -355 207 -568 207 -99 0 -122 -4 -197 -31 -129 -46 -136
-46 -154 -11 -9 17 -27 73 -40 125 -82 314 -58 666 69 1007 26 69 113 239 160
310 58 88 176 218 254 280 158 126 424 210 620 197 l86 -6 90 80 c129 116 207
172 317 229 299 155 686 206 1007 134z"/>
<path d="M4260 3415 c0 -2 18 -9 39 -15 85 -23 158 -153 132 -233 -23 -69
-100 -115 -162 -97 -116 33 -176 151 -131 254 25 56 10 62 -18 6 -26 -51 -26
-128 0 -180 53 -104 203 -138 282 -63 105 98 58 284 -80 323 -40 11 -62 13
-62 5z"/>
<path d="M2730 3219 c-84 -37 -134 -138 -116 -234 15 -79 127 -153 208 -140
53 9 121 71 144 131 33 86 1 187 -75 235 -54 35 -97 37 -161 8z m126 -20 c33
-15 49 -32 68 -72 41 -82 30 -152 -35 -215 -74 -72 -187 -45 -231 55 -37 84 8
202 92 240 37 17 59 15 106 -8z"/>
<path d="M3765 3083 c28 -109 10 -170 -70 -241 -57 -50 -101 -66 -171 -60 -99
8 -197 109 -194 200 3 63 1 65 -20 39 -39 -46 -19 -122 49 -190 60 -60 114
-84 186 -84 179 0 334 201 255 331 -25 40 -45 43 -35 5z"/>
<path d="M15840 4425 c-310 -62 -559 -247 -696 -516 -21 -40 -47 -84 -58 -98
-23 -27 -87 -100 -124 -141 -30 -33 -110 -154 -121 -183 -5 -12 -14 -57 -21
-100 -7 -42 -18 -81 -24 -86 -6 -4 -53 -14 -104 -20 -199 -25 -423 -148 -551
-303 -109 -132 -184 -333 -194 -521 -2 -49 -8 -92 -13 -96 -5 -5 -74 -37 -154
-71 -487 -209 -863 -351 -885 -334 -7 5 -40 33 -74 62 -44 36 -71 52 -91 52
-30 0 -35 -9 -76 -140 -9 -30 -18 -56 -19 -58 -4 -5 -142 -43 -295 -82 -235
-59 -601 -128 -875 -165 -66 -9 -123 -19 -126 -21 -9 -5 -476 -51 -664 -65
-373 -27 -1007 -13 -1425 32 -571 61 -791 105 -1758 356 -96 25 -108 26 -165
14 -204 -42 -336 -232 -297 -427 15 -73 44 -125 105 -186 62 -62 144 -100 294
-137 68 -17 126 -33 130 -35 8 -5 122 -36 261 -71 217 -55 746 -156 990 -190
94 -13 169 -20 525 -55 523 -50 1240 -47 1830 9 194 19 613 76 695 96 30 7
111 23 180 35 107 18 400 88 565 134 38 11 54 11 68 3 9 -7 41 -64 70 -127 83
-181 101 -212 130 -234 27 -20 27 -20 54 0 27 20 58 67 151 230 36 63 59 94
75 97 12 3 74 3 137 1 154 -6 225 2 257 30 35 30 28 54 -47 151 -33 43 -60 81
-60 85 0 10 26 20 48 20 9 0 73 27 142 59 69 32 210 96 314 142 104 45 225
102 270 126 l81 44 105 -55 c198 -102 380 -140 565 -118 107 14 216 40 289 72
26 11 51 20 55 20 4 0 34 -25 67 -55 140 -131 240 -194 390 -243 127 -43 220
-60 359 -68 236 -13 505 59 673 179 99 71 137 97 143 97 3 0 37 -24 75 -54
221 -171 560 -251 840 -197 253 48 403 126 554 288 l63 67 51 -12 c28 -6 76
-19 106 -27 30 -8 100 -18 155 -21 281 -17 568 97 748 297 95 104 181 274 213
421 21 91 22 286 4 388 -38 205 -157 412 -306 530 -136 108 -267 160 -454 181
-58 7 -106 13 -107 14 -2 0 -8 37 -14 81 -27 197 -119 377 -274 542 -236 251
-495 353 -859 339 -221 -9 -346 -44 -558 -160 -84 -46 -131 -79 -187 -134 -41
-40 -78 -73 -82 -73 -5 0 -24 18 -44 39 -50 54 -249 194 -337 238 -183 90
-317 123 -498 122 -69 -1 -154 -7 -190 -14z m390 -44 c110 -29 175 -53 265
-99 135 -68 297 -182 392 -278 8 -8 17 -14 20 -14 3 0 27 20 54 44 77 69 251
184 353 232 200 95 435 123 686 83 127 -21 283 -83 401 -162 73 -48 208 -182
257 -254 97 -144 182 -368 182 -483 0 -39 18 -50 84 -50 150 -1 343 -68 470
-164 104 -79 162 -152 232 -294 68 -138 82 -191 90 -342 10 -188 -29 -356
-124 -526 -148 -266 -470 -442 -767 -419 -129 10 -242 30 -304 53 l-53 21 -92
-93 c-137 -141 -272 -221 -451 -267 -129 -33 -373 -34 -490 -2 -153 42 -302
113 -427 204 -37 27 -72 49 -76 49 -5 0 -17 -10 -28 -21 -21 -24 -170 -126
-221 -153 -48 -24 -162 -64 -247 -86 -152 -39 -382 -36 -556 7 -184 45 -379
156 -491 281 -59 64 -62 66 -108 43 -53 -27 -164 -57 -285 -76 -207 -33 -443
20 -631 140 -173 110 -285 258 -346 455 -19 63 -23 97 -23 205 0 112 4 142 28
219 32 106 66 183 108 245 155 226 352 340 623 360 l90 6 7 64 c19 171 60 262
189 421 25 30 94 120 153 200 125 168 149 195 231 259 124 98 296 179 446 211
69 14 273 4 359 -19z m-2270 -2113 c0 -17 14 -71 31 -121 38 -114 117 -236
202 -311 49 -45 60 -59 52 -72 -5 -8 -62 -37 -125 -63 -63 -27 -154 -67 -202
-90 -49 -22 -127 -56 -175 -75 -49 -19 -137 -55 -198 -80 -60 -25 -124 -46
-142 -46 -55 0 -52 28 22 184 74 155 84 188 64 212 -27 33 -54 33 -229 3 -95
-16 -181 -27 -191 -24 -21 7 -119 117 -119 134 0 6 8 11 18 11 21 0 251 79
377 130 150 60 550 233 569 246 26 18 46 1 46 -38z m-1050 -384 l143 -146 41
5 c22 3 105 15 184 26 79 12 148 19 153 16 21 -13 5 -64 -61 -202 -39 -79 -67
-150 -63 -156 17 -29 83 -107 141 -167 71 -73 85 -106 56 -127 -15 -11 -54
-13 -192 -9 -96 3 -180 2 -188 -1 -7 -3 -59 -79 -116 -169 -56 -90 -107 -164
-113 -164 -10 0 -108 186 -167 318 -25 55 -48 69 -171 103 -105 30 -202 65
-224 82 -7 5 -13 18 -13 28 0 30 22 48 248 192 40 26 76 57 81 69 4 13 11 59
14 103 6 83 41 278 57 321 5 13 18 24 28 24 11 0 79 -61 162 -146z m-5400 -4
c467 -146 1063 -271 1560 -330 596 -69 1028 -85 1545 -55 515 29 764 56 1070
115 61 11 160 30 220 40 207 37 507 110 649 159 32 12 63 18 68 15 11 -7 0
-176 -13 -211 -5 -13 -51 -51 -106 -87 -122 -79 -213 -153 -232 -188 -14 -25
-14 -29 7 -51 25 -27 153 -81 229 -97 110 -24 97 -41 -58 -75 -628 -136 -1122
-210 -1644 -246 -262 -19 -969 -16 -1290 4 -238 16 -518 42 -555 52 -8 2 -76
12 -150 20 -373 45 -873 151 -1370 291 -214 60 -281 102 -331 207 -37 79 -44
141 -25 216 49 191 226 283 426 221z"/>
</g>
</svg>
